<svg xmlns="http://www.w3.org/2000/svg" viewBox="0 0 166.53 142.71"><defs><style>.cls-1{fill:#4aa174;}.cls-2{fill:#27a2d2;}</style></defs><title>Recurso 6</title><g id="Capa_2" data-name="Capa 2"><g id="Capa_1-2" data-name="Capa 1"><path class="cls-1" d="M166.53.18C165.39,2.1,164.25,4,163.13,6q-31.47,54-62.93,108L83.82,142l-.42.69C83,142.33,18.25,31.37,17.66,30c.21,0,.39-.07.57-.07q14.91,0,29.83,0a1,1,0,0,1,.95.64q5.68,9.74,11.38,19.46L82.88,88.47c.12.22.25.42.44.74.18-.27.32-.49.45-.71L97.32,65.34,117.7,30.49,135.1.75c.13-.23.23-.48.34-.72h30.5C166.13,0,166.39-.11,166.53.18Z"/><path class="cls-2" d="M122,0l-7.38,12.81c-1.24,2.15-2.5,4.31-3.71,6.48a1.14,1.14,0,0,1-1.15.68c-7.21,0-14.41,0-21.61,0h-1c.18.32.29.55.42.78Q92.86,29.88,98.19,39c.07.1.12.22.19.31a.68.68,0,0,1,0,.87c-1.2,2.1-2.38,4.2-3.57,6.3q-5.52,9.75-11,19.5l-.48.8c-.2-.31-.34-.54-.48-.77Q69.66,43.45,56.5,20.87C55.88,19.8,56.24,20,55,20H12.72c-.19,0-.39,0-.59,0a.57.57,0,0,1-.6-.33c-.23-.43-.49-.85-.74-1.28Q5.68,9.59.55.81A4.07,4.07,0,0,0,0,.18S.05,0,.07,0c.2,0,.4,0,.6,0Z"/></g></g></svg>